<?xml version="1.0" encoding="utf-8"?>
<!-- Generator: Adobe Illustrator 16.0.3, SVG Export Plug-In . SVG Version: 6.00 Build 0)  -->
<!DOCTYPE svg PUBLIC "-//W3C//DTD SVG 1.1//EN" "http://www.w3.org/Graphics/SVG/1.1/DTD/svg11.dtd">
<svg version="1.1" id="Layer_1" xmlns="http://www.w3.org/2000/svg" xmlns:xlink="http://www.w3.org/1999/xlink" x="0px" y="0px"
	 width="682.466px" height="88.495px" viewBox="0 0 682.466 88.495" enable-background="new 0 0 682.466 88.495"
	 xml:space="preserve">
<g>
	<g>
		<path fill="#FFFFFF" d="M66.416,44.283c-0.072,13.25-8.496,25.995-25.418,25.995S15.58,57.46,15.58,44.139
			c0-13.537,8.425-25.922,25.418-25.922S66.488,30.674,66.416,44.283z M19.396,44.211c0.071,11.377,7.272,22.466,21.602,22.466
			c14.401,0,21.674-11.089,21.674-22.466c0-11.665-7.2-22.394-21.674-22.394S19.324,32.331,19.396,44.211z"/>
		<path fill="#FFFFFF" d="M119.622,24.625l-19.297,29.523h-1.297L79.586,24.625v44.788h-3.889V19.009c1.873,0,2.736,0,4.608,0
			l19.298,29.378l19.082-29.378h4.752v50.404h-3.816V24.625z"/>
		<path fill="#FFFFFF" d="M136.25,19.009l33.915,41.691V19.009h3.816v50.404h-1.512l-33.987-41.62v41.62h-3.889V19.009H136.25z"/>
		<path fill="#FFFFFF" d="M185.281,69.414V19.009h3.816v50.404H185.281z"/>
		<path fill="#FFFFFF" d="M239.86,28.298c-4.392-4.32-10.513-6.48-16.201-6.48c-14.761,0-22.321,10.801-22.25,22.466
			c0,11.881,7.561,22.106,22.25,22.106c5.4,0,11.018-1.872,15.338-5.833V46.443h-17.57v-3.384h21.242v18.866
			c-5.257,5.256-11.521,8.137-19.01,8.137c-17.138,0-25.994-11.953-25.994-25.706c-0.072-15.77,10.657-26.066,25.994-26.066
			c6.625,0,13.321,2.521,18.434,7.561L239.86,28.298z"/>
		<path fill="#FFFFFF" d="M301.852,44.283c-0.072,13.25-8.496,25.995-25.418,25.995s-25.418-12.817-25.418-26.139
			c0-13.537,8.425-25.922,25.418-25.922S301.924,30.674,301.852,44.283z M254.833,44.211c0.071,11.377,7.272,22.466,21.602,22.466
			c14.401,0,21.674-11.089,21.674-22.466c0-11.665-7.2-22.394-21.674-22.394S254.76,32.331,254.833,44.211z"/>
		<polygon fill="#FFFFFF" points="332.737,19.009 328.488,19.009 305.878,69.414 310.054,69.414 330.577,22.753 351.17,69.414 
			355.347,69.414 		"/>
		<path fill="#FFFFFF" d="M367.872,22.538h-18.218v-3.457h40.324v3.457H371.76v46.876h-3.889V22.538z"/>
		<path fill="#FFFFFF" d="M459.385,43.635c0.288,12.817-7.921,25.778-25.563,25.778c-5.688,0-11.377,0-17.065,0V19.009
			c5.688,0,11.377,0,17.065,0C450.888,19.009,459.097,31.25,459.385,43.635z M420.646,22.682v42.988h13.177
			c14.978,0,21.891-11.233,21.674-22.034c-0.216-10.513-7.128-20.954-21.674-20.954H420.646z"/>
		<path fill="#FFFFFF" d="M471.982,42.267h29.522v3.528h-29.522v19.874h31.827v3.744h-35.644V19.009h34.779v3.672h-30.963V42.267z"
			/>
		<path fill="#FFFFFF" d="M546.576,28.73c-3.672-5.904-9.576-6.769-15.265-6.84c-5.904,0-15.266,2.16-15.266,10.225
			c0,6.409,6.913,7.921,15.409,9.505c9.721,1.872,19.802,3.601,19.802,14.473c-0.072,11.377-11.521,14.113-19.945,14.113
			c-7.849,0-16.777-3.24-20.666-10.945l3.456-1.728c3.097,6.121,11.018,9.145,17.21,9.145s16.057-1.728,16.057-10.657
			c0.072-7.561-8.28-9.217-16.561-10.801c-9.217-1.8-18.65-3.672-18.65-12.961c-0.216-10.657,10.873-13.969,19.154-13.969
			c7.2,0,13.465,1.152,18.434,8.569L546.576,28.73z"/>
		<path fill="#FFFFFF" d="M559.534,69.414V19.009h3.816v50.404H559.534z"/>
		<path fill="#FFFFFF" d="M614.113,28.298c-4.393-4.32-10.514-6.48-16.202-6.48c-14.761,0-22.321,10.801-22.25,22.466
			c0,11.881,7.562,22.106,22.25,22.106c5.4,0,11.018-1.872,15.338-5.833V46.443h-17.569v-3.384h21.241v18.866
			c-5.256,5.256-11.521,8.137-19.01,8.137c-17.137,0-25.994-11.953-25.994-25.706c-0.071-15.77,10.657-26.066,25.994-26.066
			c6.625,0,13.321,2.521,18.434,7.561L614.113,28.298z"/>
		<path fill="#FFFFFF" d="M629.157,19.009l33.915,41.691V19.009h3.815v50.404h-1.512l-33.987-41.62v41.62H627.5V19.009H629.157z"/>
	</g>
</g>
<g>
</g>
<g>
</g>
<g>
</g>
<g>
</g>
<g>
</g>
<g>
</g>
</svg>
